<?xml version="1.0" standalone="no"?>
<!DOCTYPE svg PUBLIC "-//W3C//DTD SVG 20010904//EN"
 "http://www.w3.org/TR/2001/REC-SVG-20010904/DTD/svg10.dtd">
<svg version="1.0" xmlns="http://www.w3.org/2000/svg"
 width="1625.000000pt" height="289.000000pt" viewBox="0 0 1625.000000 289.000000"
 preserveAspectRatio="xMidYMid meet">
<metadata>
Created by potrace 1.16, written by Peter Selinger 2001-2019
</metadata>
<g transform="translate(0.000000,289.000000) scale(0.100000,-0.100000)"
fill="#000000" stroke="none">
<path d="M2503 2558 l-273 -132 0 -138 0 -138 33 13 c17 8 143 61 280 118
l247 104 0 152 c0 84 -3 153 -7 152 -5 0 -131 -59 -280 -131z"
fill="currentColor"/>
<path d="M11630 1620 l0 -860 200 0 200 0 0 378 c0 417 3 445 60 514 88 106
294 110 373 6 62 -81 62 -77 65 -505 l3 -393 195 0 195 0 -3 453 c-4 491 -4
491 -65 611 -81 160 -268 257 -464 242 -129 -10 -221 -50 -311 -135 l-48 -44
0 297 0 296 -200 0 -200 0 0 -860z"/>
<path d="M250 1575 l0 -815 200 0 200 0 0 335 0 335 310 0 310 0 0 -335 0
-335 195 0 195 0 0 815 0 815 -195 0 -195 0 0 -320 0 -320 -310 0 -310 0 0
320 0 320 -200 0 -200 0 0 -815z"/>
<path d="M7854 2080 l-60 -311 135 3 135 3 128 304 c70 168 128 306 128 308 0
2 -91 3 -203 3 l-203 0 -60 -310z"/>
<path d="M2390 2063 c-188 -32 -358 -154 -439 -317 -59 -117 -75 -188 -75
-336 -1 -185 35 -304 130 -429 144 -192 428 -282 692 -220 26 6 85 29 131 51
112 53 212 151 264 258 20 41 39 85 42 98 l6 22 -208 0 -209 0 -38 -46 c-47
-56 -92 -76 -171 -76 -68 0 -127 20 -169 60 -34 32 -76 116 -76 155 l0 27 444
0 c396 0 445 2 450 16 3 9 6 51 6 94 0 391 -263 654 -649 649 -58 -1 -117 -4
-131 -6z m245 -332 c73 -34 125 -105 125 -172 l0 -29 -246 0 -246 0 7 33 c18
80 75 147 147 174 52 19 167 16 213 -6z"/>
<path d="M4065 2060 c-98 -20 -192 -70 -250 -130 l-30 -31 -5 78 -5 78 -197 3
-198 2 0 -650 0 -650 200 0 200 0 0 388 c0 430 2 450 62 511 51 52 104 74 178
74 105 0 177 -41 223 -128 21 -39 22 -52 25 -442 l3 -403 200 0 201 0 -5 438
c-3 367 -7 447 -21 501 -36 137 -127 259 -237 314 -97 48 -240 68 -344 47z"/>
<path d="M5350 2050 c-205 -53 -360 -186 -432 -370 -35 -88 -36 -93 -47 -190
-37 -332 128 -608 425 -710 189 -65 441 -40 611 62 128 76 239 228 280 379 23
88 23 281 0 369 -46 173 -165 326 -313 403 -146 75 -361 99 -524 57z m255
-331 c88 -25 164 -105 186 -197 5 -20 9 -72 10 -116 1 -135 -42 -225 -135
-283 -54 -35 -165 -44 -230 -19 -51 20 -117 87 -142 143 -21 50 -30 193 -15
264 33 158 176 249 326 208z"/>
<path d="M6860 2063 c-222 -38 -399 -187 -476 -397 -47 -129 -54 -313 -18
-453 59 -232 216 -390 444 -450 82 -21 274 -23 350 -4 131 33 260 114 333 209
40 53 101 177 112 230 l7 32 -211 0 -210 0 -17 -35 c-60 -128 -247 -154 -346
-49 -15 16 -37 52 -50 79 -20 44 -23 65 -23 180 0 140 6 167 57 242 78 115
275 112 349 -6 l30 -46 209 -5 c148 -4 210 -2 210 6 0 24 -42 131 -75 189 -19
35 -63 89 -100 124 -120 112 -259 162 -444 160 -58 -1 -117 -4 -131 -6z"/>
<path d="M8880 2054 c-216 -46 -351 -193 -352 -381 0 -93 22 -159 74 -218 72
-82 126 -107 379 -175 164 -45 222 -69 239 -99 32 -60 -14 -125 -98 -141 -83
-15 -148 3 -199 56 -23 23 -43 53 -45 66 l-3 23 -197 3 c-109 1 -198 -1 -198
-6 0 -29 36 -134 60 -177 63 -110 207 -209 360 -246 81 -20 289 -17 370 5 137
38 251 121 301 223 21 41 24 62 24 153 0 98 -2 109 -30 159 -58 106 -141 158
-345 216 -233 67 -260 76 -290 101 -66 56 -24 145 75 159 96 15 190 -33 215
-111 l12 -34 184 0 184 0 -6 28 c-29 129 -57 186 -130 262 -66 69 -128 104
-230 130 -92 24 -255 26 -354 4z"/>
<path d="M10662 2055 c-71 -16 -161 -58 -216 -101 -87 -68 -143 -200 -133
-308 19 -195 120 -281 422 -357 221 -55 280 -88 278 -155 -2 -63 -53 -96 -148
-97 -92 -1 -152 32 -185 100 l-25 53 -192 0 c-221 0 -207 8 -175 -97 37 -118
125 -218 245 -276 114 -56 183 -71 332 -71 137 0 225 18 319 66 61 31 143 115
173 177 23 48 27 69 28 146 0 98 -19 156 -71 218 -70 83 -141 117 -372 181
-187 51 -228 69 -248 108 -33 64 10 122 100 133 98 12 192 -35 212 -107 l10
-33 183 -3 184 -2 -7 40 c-31 197 -173 343 -376 386 -82 17 -255 17 -338 -1z"/>
<path d="M13624 2056 c-325 -74 -519 -341 -501 -689 6 -117 23 -186 67 -279
75 -157 225 -275 410 -324 78 -21 269 -24 349 -6 316 72 511 319 511 646 0
126 -20 221 -64 311 -76 154 -203 265 -366 319 -72 25 -104 29 -215 32 -87 3
-150 -1 -191 -10z m259 -346 c121 -45 187 -172 174 -336 -10 -130 -76 -232
-174 -270 -63 -25 -175 -15 -228 18 -103 65 -150 200 -126 357 19 121 71 194
167 231 64 25 120 25 187 0z"/>
<path d="M15335 2056 c-73 -18 -152 -64 -212 -124 l-53 -52 0 90 0 90 -197 -2
-198 -3 -3 -957 -2 -958 200 0 200 0 0 397 0 396 58 -55 c104 -99 237 -146
380 -133 206 18 361 124 452 310 53 108 71 178 77 316 9 184 -28 330 -115 459
-80 117 -203 202 -330 229 -68 14 -193 13 -257 -3z m77 -337 c83 -18 153 -72
193 -149 27 -51 38 -154 25 -226 -20 -117 -70 -186 -169 -232 -46 -21 -63 -24
-127 -20 -59 4 -83 11 -121 34 -100 62 -149 167 -141 303 10 174 112 285 275
300 7 1 36 -4 65 -10z"/>
</g>
</svg>
